<mxfile host="app.diagrams.net" agent="Mozilla/5.0 (Windows NT 10.0; Win64; x64) AppleWebKit/537.36 (KHTML, like Gecko) Chrome/135.0.0.0 Safari/537.36" version="26.2.13">
  <diagram name="Página-1" id="csH4je1QYTUn9GXEJPu3">
    <mxGraphModel dx="1641" dy="891" grid="1" gridSize="10" guides="1" tooltips="1" connect="1" arrows="1" fold="1" page="1" pageScale="1" pageWidth="827" pageHeight="1169" math="0" shadow="0">
      <root>
        <mxCell id="0" />
        <mxCell id="1" parent="0" />
        <mxCell id="6KcKYn3dQAwKC7U_ceJ2-1" value="inicio" style="ellipse;whiteSpace=wrap;html=1;" parent="1" vertex="1">
          <mxGeometry x="340" y="10" width="120" height="80" as="geometry" />
        </mxCell>
        <mxCell id="6KcKYn3dQAwKC7U_ceJ2-2" value="Qual é a idade?" style="shape=display;whiteSpace=wrap;html=1;" parent="1" vertex="1">
          <mxGeometry x="360" y="120" width="80" height="40" as="geometry" />
        </mxCell>
        <mxCell id="6KcKYn3dQAwKC7U_ceJ2-12" style="edgeStyle=orthogonalEdgeStyle;rounded=0;orthogonalLoop=1;jettySize=auto;html=1;exitX=0.5;exitY=1;exitDx=0;exitDy=0;entryX=0.5;entryY=0;entryDx=0;entryDy=0;" parent="1" source="6KcKYn3dQAwKC7U_ceJ2-3" target="6KcKYn3dQAwKC7U_ceJ2-4" edge="1">
          <mxGeometry relative="1" as="geometry" />
        </mxCell>
        <mxCell id="6KcKYn3dQAwKC7U_ceJ2-3" value="idade" style="shape=manualInput;whiteSpace=wrap;html=1;" parent="1" vertex="1">
          <mxGeometry x="360" y="180" width="80" height="80" as="geometry" />
        </mxCell>
        <mxCell id="6KcKYn3dQAwKC7U_ceJ2-5" style="edgeStyle=orthogonalEdgeStyle;rounded=0;orthogonalLoop=1;jettySize=auto;html=1;exitX=0;exitY=0.5;exitDx=0;exitDy=0;entryX=0;entryY=0.5;entryDx=0;entryDy=0;entryPerimeter=0;" parent="1" source="6KcKYn3dQAwKC7U_ceJ2-4" target="6KcKYn3dQAwKC7U_ceJ2-2" edge="1">
          <mxGeometry relative="1" as="geometry">
            <mxPoint x="310" y="130" as="targetPoint" />
            <Array as="points">
              <mxPoint x="311" y="345" />
              <mxPoint x="311" y="140" />
            </Array>
          </mxGeometry>
        </mxCell>
        <mxCell id="6KcKYn3dQAwKC7U_ceJ2-7" value="Não" style="edgeLabel;html=1;align=center;verticalAlign=middle;resizable=0;points=[];" parent="6KcKYn3dQAwKC7U_ceJ2-5" vertex="1" connectable="0">
          <mxGeometry x="-0.0081" y="-2" relative="1" as="geometry">
            <mxPoint as="offset" />
          </mxGeometry>
        </mxCell>
        <mxCell id="6KcKYn3dQAwKC7U_ceJ2-8" style="edgeStyle=orthogonalEdgeStyle;rounded=0;orthogonalLoop=1;jettySize=auto;html=1;exitX=0.5;exitY=1;exitDx=0;exitDy=0;" parent="1" source="6KcKYn3dQAwKC7U_ceJ2-4" edge="1">
          <mxGeometry relative="1" as="geometry">
            <mxPoint x="400" y="430" as="targetPoint" />
          </mxGeometry>
        </mxCell>
        <mxCell id="6KcKYn3dQAwKC7U_ceJ2-9" value="Sim" style="edgeLabel;html=1;align=center;verticalAlign=middle;resizable=0;points=[];" parent="6KcKYn3dQAwKC7U_ceJ2-8" vertex="1" connectable="0">
          <mxGeometry x="0.0755" y="-3" relative="1" as="geometry">
            <mxPoint as="offset" />
          </mxGeometry>
        </mxCell>
        <mxCell id="6KcKYn3dQAwKC7U_ceJ2-4" value="idade é um valor?" style="rhombus;whiteSpace=wrap;html=1;" parent="1" vertex="1">
          <mxGeometry x="335" y="290" width="130" height="110" as="geometry" />
        </mxCell>
        <mxCell id="6KcKYn3dQAwKC7U_ceJ2-10" style="edgeStyle=orthogonalEdgeStyle;rounded=0;orthogonalLoop=1;jettySize=auto;html=1;exitX=0.5;exitY=1;exitDx=0;exitDy=0;entryX=0;entryY=0;entryDx=40;entryDy=0;entryPerimeter=0;" parent="1" source="6KcKYn3dQAwKC7U_ceJ2-1" target="6KcKYn3dQAwKC7U_ceJ2-2" edge="1">
          <mxGeometry relative="1" as="geometry" />
        </mxCell>
        <mxCell id="6KcKYn3dQAwKC7U_ceJ2-11" style="edgeStyle=orthogonalEdgeStyle;rounded=0;orthogonalLoop=1;jettySize=auto;html=1;exitX=0;exitY=0;exitDx=40;exitDy=40;exitPerimeter=0;entryX=0.457;entryY=0.157;entryDx=0;entryDy=0;entryPerimeter=0;" parent="1" source="6KcKYn3dQAwKC7U_ceJ2-2" target="6KcKYn3dQAwKC7U_ceJ2-3" edge="1">
          <mxGeometry relative="1" as="geometry" />
        </mxCell>
        <mxCell id="1ZT6V8H_WdSwwKKGBJ6a-1" style="edgeStyle=orthogonalEdgeStyle;rounded=0;orthogonalLoop=1;jettySize=auto;html=1;exitX=0;exitY=0.5;exitDx=0;exitDy=0;" edge="1" parent="1" source="6KcKYn3dQAwKC7U_ceJ2-13">
          <mxGeometry relative="1" as="geometry">
            <mxPoint x="250" y="480" as="targetPoint" />
          </mxGeometry>
        </mxCell>
        <mxCell id="1ZT6V8H_WdSwwKKGBJ6a-3" value="menor que 16" style="edgeLabel;html=1;align=center;verticalAlign=middle;resizable=0;points=[];" vertex="1" connectable="0" parent="1ZT6V8H_WdSwwKKGBJ6a-1">
          <mxGeometry x="-0.1857" y="-1" relative="1" as="geometry">
            <mxPoint as="offset" />
          </mxGeometry>
        </mxCell>
        <mxCell id="1ZT6V8H_WdSwwKKGBJ6a-7" style="edgeStyle=orthogonalEdgeStyle;rounded=0;orthogonalLoop=1;jettySize=auto;html=1;exitX=0.5;exitY=1;exitDx=0;exitDy=0;" edge="1" parent="1" source="6KcKYn3dQAwKC7U_ceJ2-13">
          <mxGeometry relative="1" as="geometry">
            <mxPoint x="400.2857142857142" y="660" as="targetPoint" />
          </mxGeometry>
        </mxCell>
        <mxCell id="1ZT6V8H_WdSwwKKGBJ6a-8" value="maior ou igual a 18 e menor ou igual a setenta" style="edgeLabel;html=1;align=center;verticalAlign=middle;resizable=0;points=[];" vertex="1" connectable="0" parent="1ZT6V8H_WdSwwKKGBJ6a-7">
          <mxGeometry x="-0.2123" y="-2" relative="1" as="geometry">
            <mxPoint as="offset" />
          </mxGeometry>
        </mxCell>
        <mxCell id="1ZT6V8H_WdSwwKKGBJ6a-11" style="edgeStyle=orthogonalEdgeStyle;rounded=0;orthogonalLoop=1;jettySize=auto;html=1;exitX=1;exitY=0.5;exitDx=0;exitDy=0;" edge="1" parent="1" source="6KcKYn3dQAwKC7U_ceJ2-13">
          <mxGeometry relative="1" as="geometry">
            <mxPoint x="780" y="570" as="targetPoint" />
            <Array as="points">
              <mxPoint x="780" y="480" />
            </Array>
          </mxGeometry>
        </mxCell>
        <mxCell id="1ZT6V8H_WdSwwKKGBJ6a-14" value="idade igual a 16 ou idade igual a 17 ou idade maior que 70" style="edgeLabel;html=1;align=center;verticalAlign=middle;resizable=0;points=[];" vertex="1" connectable="0" parent="1ZT6V8H_WdSwwKKGBJ6a-11">
          <mxGeometry x="0.0399" relative="1" as="geometry">
            <mxPoint as="offset" />
          </mxGeometry>
        </mxCell>
        <mxCell id="6KcKYn3dQAwKC7U_ceJ2-13" value="a idade é?" style="rhombus;whiteSpace=wrap;html=1;" parent="1" vertex="1">
          <mxGeometry x="360" y="440" width="80" height="80" as="geometry" />
        </mxCell>
        <mxCell id="1ZT6V8H_WdSwwKKGBJ6a-6" style="edgeStyle=orthogonalEdgeStyle;rounded=0;orthogonalLoop=1;jettySize=auto;html=1;exitX=0;exitY=0.5;exitDx=0;exitDy=0;exitPerimeter=0;entryX=1;entryY=0.5;entryDx=0;entryDy=0;" edge="1" parent="1" source="1ZT6V8H_WdSwwKKGBJ6a-4" target="1ZT6V8H_WdSwwKKGBJ6a-5">
          <mxGeometry relative="1" as="geometry" />
        </mxCell>
        <mxCell id="1ZT6V8H_WdSwwKKGBJ6a-4" value="voto proibido" style="shape=display;whiteSpace=wrap;html=1;" vertex="1" parent="1">
          <mxGeometry x="160" y="460" width="80" height="40" as="geometry" />
        </mxCell>
        <mxCell id="1ZT6V8H_WdSwwKKGBJ6a-5" value="fim" style="ellipse;whiteSpace=wrap;html=1;" vertex="1" parent="1">
          <mxGeometry x="20" y="440" width="120" height="80" as="geometry" />
        </mxCell>
        <mxCell id="1ZT6V8H_WdSwwKKGBJ6a-15" style="edgeStyle=orthogonalEdgeStyle;rounded=0;orthogonalLoop=1;jettySize=auto;html=1;exitX=0;exitY=0;exitDx=40;exitDy=40;exitPerimeter=0;entryX=0.5;entryY=0;entryDx=0;entryDy=0;" edge="1" parent="1" source="1ZT6V8H_WdSwwKKGBJ6a-9" target="1ZT6V8H_WdSwwKKGBJ6a-10">
          <mxGeometry relative="1" as="geometry" />
        </mxCell>
        <mxCell id="1ZT6V8H_WdSwwKKGBJ6a-9" value="voto obrigatório" style="shape=display;whiteSpace=wrap;html=1;" vertex="1" parent="1">
          <mxGeometry x="360" y="680" width="80" height="40" as="geometry" />
        </mxCell>
        <mxCell id="1ZT6V8H_WdSwwKKGBJ6a-10" value="fim" style="ellipse;whiteSpace=wrap;html=1;" vertex="1" parent="1">
          <mxGeometry x="340" y="740" width="120" height="80" as="geometry" />
        </mxCell>
        <mxCell id="1ZT6V8H_WdSwwKKGBJ6a-18" style="edgeStyle=orthogonalEdgeStyle;rounded=0;orthogonalLoop=1;jettySize=auto;html=1;exitX=0;exitY=0;exitDx=40;exitDy=40;exitPerimeter=0;entryX=0.5;entryY=0;entryDx=0;entryDy=0;" edge="1" parent="1" source="1ZT6V8H_WdSwwKKGBJ6a-16" target="1ZT6V8H_WdSwwKKGBJ6a-17">
          <mxGeometry relative="1" as="geometry" />
        </mxCell>
        <mxCell id="1ZT6V8H_WdSwwKKGBJ6a-16" value="voto facultativo" style="shape=display;whiteSpace=wrap;html=1;" vertex="1" parent="1">
          <mxGeometry x="740" y="580" width="80" height="40" as="geometry" />
        </mxCell>
        <mxCell id="1ZT6V8H_WdSwwKKGBJ6a-17" value="fim" style="ellipse;whiteSpace=wrap;html=1;" vertex="1" parent="1">
          <mxGeometry x="720" y="660" width="120" height="80" as="geometry" />
        </mxCell>
      </root>
    </mxGraphModel>
  </diagram>
</mxfile>
